<?xml version="1.0" standalone="no"?>
<!DOCTYPE svg PUBLIC "-//W3C//DTD SVG 20010904//EN"
 "http://www.w3.org/TR/2001/REC-SVG-20010904/DTD/svg10.dtd">
<svg version="1.0" xmlns="http://www.w3.org/2000/svg"
 width="1458.000000pt" height="1458.000000pt" viewBox="0 0 1458.000000 1458.000000"
 preserveAspectRatio="xMidYMid meet">
<metadata>
Created by potrace 1.11, written by Peter Selinger 2001-2013
</metadata>
<g transform="translate(0.000000,1458.000000) scale(0.100000,-0.100000)"
fill="#000000" stroke="none">
<path d="M7330 14499 c-12 -39 -60 -230 -106 -423 -46 -193 -93 -387 -104
-431 -99 -403 -192 -812 -205 -900 -16 -111 -15 -142 12 -280 30 -157 118
-352 241 -536 83 -122 130 -179 260 -313 318 -324 668 -576 1087 -781 474
-232 850 -318 1330 -303 134 5 160 8 245 36 157 52 253 121 369 267 65 81 478
702 636 955 70 113 165 259 210 325 73 106 125 194 125 210 0 18 -43 -6 -152
-83 -187 -134 -505 -352 -626 -428 -59 -38 -175 -117 -259 -176 -218 -154
-686 -468 -768 -516 -38 -22 -82 -44 -97 -47 -32 -8 -40 5 -57 96 -32 176 -83
454 -106 584 -14 83 -35 197 -45 255 -11 58 -33 188 -50 290 -68 401 -99 583
-103 586 -4 5 -99 -32 -150 -58 -23 -11 -79 -45 -126 -75 -46 -30 -127 -76
-180 -102 -109 -54 -171 -88 -506 -284 -409 -239 -439 -256 -477 -262 -29 -6
-40 -3 -57 14 -30 30 -40 79 -66 334 -13 128 -33 320 -44 427 -24 227 -67 651
-82 795 -27 278 -90 834 -97 859 -14 51 -30 41 -52 -35z"/>
<path d="M5545 13163 c-16 -2 -217 -24 -445 -49 -639 -69 -705 -76 -712 -83
-6 -5 33 -373 46 -439 5 -22 79 -644 88 -742 2 -20 -1 -24 -17 -22 -11 1 -50
3 -86 4 -189 3 -334 -176 -298 -369 14 -72 37 -118 86 -167 117 -119 309 -119
426 0 50 50 73 95 87 171 12 68 10 86 -25 188 -14 42 -30 129 -40 215 -9 80
-33 287 -54 460 -21 173 -35 318 -32 322 6 8 193 30 596 73 132 14 272 29 310
34 39 5 73 6 77 2 4 -3 20 -107 37 -231 17 -124 35 -254 40 -290 5 -36 7 -66
6 -68 -2 -2 -28 4 -60 13 -98 29 -210 -3 -288 -82 -49 -48 -72 -93 -86 -166
-26 -144 45 -283 177 -344 96 -45 225 -29 310 37 41 33 88 105 102 157 7 27
16 51 19 55 4 5 -6 101 -21 215 -16 115 -35 260 -43 323 -9 63 -29 212 -44
330 -16 118 -35 270 -42 338 l-12 122 -36 -1 c-20 -1 -49 -4 -66 -6z"/>
<path d="M6760 11284 c-128 -12 -351 -49 -476 -79 -558 -137 -1167 -450 -1789
-919 l-120 -90 -115 -2 c-436 -6 -816 -241 -1010 -625 -128 -252 -149 -573
-56 -845 94 -276 302 -509 575 -644 90 -45 248 -94 333 -104 64 -8 54 8 92
-141 80 -314 244 -643 454 -915 139 -179 406 -432 584 -551 35 -23 65 -43 67
-45 2 -2 -23 -45 -54 -96 -32 -51 -97 -169 -145 -263 -245 -480 -377 -987
-420 -1615 -7 -93 -10 -387 -8 -730 7 -1348 4 -1533 -38 -1915 -29 -265 -60
-450 -121 -713 -20 -86 -32 -157 -27 -161 12 -11 1071 -432 1299 -516 1052
-391 1419 -398 2408 -44 270 96 1448 548 1461 560 5 4 -13 108 -43 241 -85
387 -136 656 -246 1293 -186 1077 -282 1526 -434 2025 -180 592 -452 1220
-741 1711 -17 28 -29 57 -26 64 2 7 40 31 83 55 183 99 386 246 538 391 l90
85 80 -8 c135 -14 325 9 461 56 465 159 767 574 767 1056 0 401 -196 739 -559
963 -38 23 -42 30 -48 79 -27 224 -147 576 -272 803 -170 305 -270 425 -675
811 -41 39 -128 128 -194 199 -66 71 -154 155 -195 188 -279 224 -609 367
-970 422 -102 15 -418 27 -510 19z m545 -527 c685 -155 1153 -724 1369 -1662
19 -82 36 -168 38 -189 3 -39 3 -39 -47 -56 -72 -25 -189 -84 -259 -132 -278
-189 -454 -485 -485 -812 -48 -528 271 -1004 787 -1171 28 -9 49 -21 46 -27
-19 -31 -249 -214 -369 -293 -333 -222 -713 -366 -1135 -432 -165 -26 -616
-25 -780 0 -341 54 -501 107 -865 289 -281 140 -353 186 -530 339 -488 418
-798 1006 -856 1623 -13 141 -7 442 11 561 42 277 141 570 273 813 46 84 60
101 147 171 664 540 1363 892 1955 985 55 8 111 17 125 20 14 2 124 3 245 1
191 -3 235 -7 330 -28z m1622 -731 c205 -239 370 -532 467 -828 37 -113 92
-346 83 -354 -3 -3 -43 6 -90 21 -47 14 -105 29 -128 33 l-41 7 -33 160 c-80
390 -186 708 -331 998 -25 49 -40 86 -34 82 6 -4 54 -57 107 -119z m-1664
-4747 c14 -22 -13 -84 -108 -254 -40 -71 -134 -245 -210 -385 -75 -140 -141
-259 -146 -264 -12 -13 -59 10 -59 29 0 16 40 101 257 546 156 317 180 353
231 347 14 -2 30 -10 35 -19z m-1796 -668 c82 -69 308 -291 328 -323 15 -24
15 -29 1 -55 -24 -48 -42 -58 -68 -40 -58 39 -382 348 -399 379 -15 28 31 87
68 88 7 0 38 -22 70 -49z m1116 -237 c59 -9 107 -21 107 -26 0 -31 -84 -182
-129 -231 -55 -61 -64 -96 -34 -129 31 -34 111 -17 132 29 6 13 11 40 11 59 0
52 95 234 122 234 32 0 167 -60 233 -105 127 -85 290 -249 336 -337 l19 -37
-23 -15 c-32 -22 -202 -48 -232 -36 -32 12 -32 34 0 106 14 32 24 58 22 60 -2
2 -25 -13 -53 -32 -61 -45 -121 -73 -154 -74 -41 0 -92 34 -126 83 l-31 45 -7
-55 c-9 -76 -35 -131 -83 -174 -34 -31 -51 -38 -121 -49 -45 -8 -82 -17 -82
-21 0 -4 15 -17 34 -28 49 -30 106 -97 106 -124 0 -40 -19 -91 -55 -146 -19
-30 -33 -57 -30 -59 2 -3 26 9 52 26 138 87 203 81 257 -26 l23 -46 33 57 c59
106 103 124 216 91 30 -8 59 -14 64 -12 5 2 -6 23 -25 47 -39 49 -43 71 -17
94 23 21 120 46 211 54 l73 6 -6 -34 c-4 -19 -24 -68 -44 -109 -29 -59 -51
-86 -104 -130 -132 -111 -246 -145 -473 -144 -222 1 -369 36 -565 134 -232
117 -381 263 -464 455 -27 63 -30 81 -30 170 0 98 18 175 42 175 11 0 145
-114 220 -185 37 -36 52 -59 52 -77 0 -29 41 -68 71 -68 10 0 34 14 54 31 59
52 41 121 -34 133 -33 5 -52 20 -126 98 -139 148 -160 175 -145 193 17 20 122
78 180 99 129 47 332 59 523 30z m1611 -475 c14 -41 -11 -81 -61 -95 -23 -7
-246 -47 -495 -89 -586 -98 -602 -101 -676 -137 -42 -20 -71 -28 -87 -24 -32
8 -43 50 -24 85 21 37 79 74 104 66 49 -17 88 -15 181 5 192 41 860 188 924
203 92 21 123 18 134 -14z"/>
<path d="M5601 9435 c-116 -36 -211 -206 -230 -413 -16 -172 17 -353 84 -467
46 -79 140 -145 205 -145 66 0 159 66 206 146 70 119 103 308 84 471 -27 221
-121 381 -245 412 -52 13 -49 13 -104 -4z"/>
<path d="M6634 9341 c-39 -10 -82 -40 -123 -86 -169 -193 -166 -665 5 -855 56
-62 98 -83 164 -83 64 0 103 19 156 75 181 192 185 672 8 868 -64 71 -137 99
-210 81z"/>
<path d="M4747 7943 c-70 -33 -78 -39 -73 -59 12 -45 203 -431 280 -564 322
-556 657 -846 1060 -916 290 -51 640 11 1051 186 172 73 556 271 722 372 l32
19 -47 79 c-25 44 -50 80 -55 80 -5 0 -83 -42 -175 -94 -604 -339 -1022 -480
-1370 -463 -271 13 -470 112 -692 343 -196 204 -360 462 -555 874 -46 96 -87
175 -91 176 -5 2 -44 -14 -87 -33z"/>
</g>
</svg>
