<svg width="195" height="200" viewBox="0 0 195 200" version="1.1" xmlns="http://www.w3.org/2000/svg" xmlns:xlink="http://www.w3.org/1999/xlink">
<title>triplej</title>
<desc>Created using Figma</desc>
<g id="Canvas" transform="translate(239 238)">
<g id="triplej">
<use xlink:href="#path0_fill" transform="translate(-239 -238)" fill="#E63228" fill-opacity="0.4"/>
</g>
</g>
<defs>
<path id="path0_fill" d="M 67.6821 4.02167e-11C 67.0664 4.02167e-11 65.8387 0.735943 64.9394 1.6287C 63.127 3.42784 63.2681 5.11212 65.723 10.5015C 66.5026 12.2129 67.7439 15.0133 68.4902 16.7246C 69.2364 18.436 70.5706 21.4114 71.4287 23.3367C 72.2869 25.262 73.2678 27.5373 73.6327 28.393C 73.9975 29.2486 75.4089 32.3991 76.7671 35.394C 78.1254 38.3888 80.1275 42.9395 81.1995 45.5065C 82.2714 48.0736 83.8864 51.8468 84.7992 53.8931C 86.0316 56.656 86.7828 57.4996 87.6888 57.1262C 88.3598 56.8497 89.4778 56.4546 90.1866 56.2511C 91.326 55.924 91.3445 55.6505 90.3825 53.8202C 89.7841 52.6817 89.2978 51.2046 89.2805 50.5628C 89.2632 49.9211 88.5705 47.9958 87.7378 46.2844C 86.905 44.5731 86.2096 42.5836 86.195 41.8602C 86.1804 41.1367 85.8337 40.354 85.4359 40.1099C 85.0381 39.8658 84.466 38.54 84.1625 37.1685C 83.8591 35.797 83.3091 34.1294 82.9381 33.4736C 81.7495 31.3727 74.2862 11.399 73.4123 7.97336C 72.9484 6.15505 72.2769 4.66733 71.9185 4.66733C 71.5601 4.66733 71.2818 4.18461 71.2818 3.57342C 71.2818 2.14062 69.1254 -1.07142e-05 67.6821 4.02167e-11ZM 189.412 18.8152C 187.866 18.9896 186.067 20.9628 179.029 29.1952C 176.874 31.7157 173.837 35.197 172.295 36.9254C 170.753 38.6539 167.443 42.5117 164.924 45.5065C 162.405 48.5014 158.505 53.0521 156.255 55.6191C 149.414 63.4261 145.495 67.9603 141.905 72.1979C 139.6 74.9198 137.881 76.2332 136.665 76.2332C 132.483 76.2332 130.65 82.7263 134.143 85.1546C 135.1 85.8206 136.402 86.3457 137.032 86.3457C 138.921 86.3457 141.788 83.1186 141.807 80.9734C 141.82 79.5239 143.792 76.9121 148.933 71.5658C 152.842 67.5013 160.673 59.3222 166.344 53.3827C 172.015 47.4431 180.191 38.9242 184.49 34.4459C 194.65 23.8637 194.766 23.7101 193.477 21.319C 192.915 20.2768 191.559 19.2033 190.49 18.9367C 190.099 18.8395 189.769 18.7749 189.412 18.8152ZM 130.837 52.4103C 122.318 52.381 113.148 52.9683 107.72 54.3064C 95.8095 57.2423 93.0356 58.3373 93.6639 59.8002C 93.9665 60.505 94.7169 62.4645 95.3291 64.1759C 97.1578 69.2889 98.2624 71.5658 98.9288 71.5658C 100.052 71.5658 103.41 75.644 103.41 77.011C 103.41 77.7418 102.532 79.2822 101.476 80.4143C 99.107 82.9514 95.765 83.1088 93.2721 80.8033C 91.7783 79.4218 91.5471 78.5831 91.9007 75.9658C 92.3099 72.9376 91.6601 70.8994 87.5663 62.4742L 86.7338 60.7726L 81.1505 63.5438C 64.0054 72.0866 53.0794 82.8185 49.3405 94.7323C 48.7692 96.5528 48.4432 98.1928 48.6304 98.3787C 48.8176 98.5645 55.2153 98.9497 62.8579 99.2538C 74.634 99.7223 76.9799 99.6337 78.1385 98.6461C 80.4722 96.6567 82.2722 96.4166 85.0441 97.7223C 87.5983 98.9255 88.1962 100.189 87.7378 103.459C 87.2362 107.037 81.3828 108.722 78.7017 106.06C 77.5545 104.922 75.8782 104.844 64.0089 105.307C 56.6371 105.594 50.4627 105.967 50.2956 106.133C 49.5961 106.828 52.5922 111.187 55.6585 113.936C 61.3691 119.058 70.512 122.397 82.4484 123.709C 97.591 125.373 119.26 121.538 136.028 114.252C 146.886 109.535 160.31 100.153 164.606 94.2705C 165.64 92.8544 166.88 91.2618 167.373 90.7213C 170.899 86.8573 172.997 77.453 171.609 71.7117C 170.78 68.2792 166.83 62.2311 165.414 62.2311C 164.243 62.2311 154.258 72.8165 153.831 74.5072C 153.067 77.5282 154.781 78.5668 160.467 78.5668C 166.317 78.5668 166.142 79.1125 159.439 81.6784C 151.074 84.8801 149.743 87.3577 152.802 94.0517C 153.663 95.9337 154.26 97.5878 154.125 97.7223C 153.989 97.8569 152.155 97.449 150.06 96.8229C 145.464 95.45 143.284 95.3914 140.656 96.5798C 138.491 97.5593 134.755 104.227 134.755 107.081C 134.755 108.042 134.378 109.029 133.947 109.293C 133.045 109.846 131.62 106.558 131.62 103.945C 131.62 102.975 130.41 100.808 128.951 99.1323C 126.384 96.1834 126.139 96.0693 121.311 96.0693C 118.567 96.0693 114.924 96.3663 113.205 96.7257L 110.071 97.382L 114.577 92.7147C 118.648 88.4779 119.082 87.7045 119.082 84.6198C 119.082 80.9752 117.491 78.216 113.205 74.41L 110.854 72.3194L 113.989 72.9271C 124.817 75.011 129.713 71.7957 131.253 61.6477C 131.529 59.8294 131.972 58.3411 132.257 58.3417C 132.542 58.3423 133.544 60.074 134.485 62.1825C 136.722 67.1916 138.447 68.1341 141.464 65.9747C 143.839 64.2751 150.517 56.8834 151.015 55.4003C 151.646 53.5207 141.789 52.448 130.837 52.4103ZM 177.658 95.7776C 177.373 95.8101 177.089 96.5884 176.85 98.2085C 176.243 102.31 171.472 125.525 170.973 126.796C 170.72 127.438 170.081 130.413 169.552 133.408C 169.024 136.403 168.194 140.603 167.716 142.743C 167.237 144.882 166.118 150.133 165.242 154.411C 163.315 163.833 162.116 168.024 161.324 168.024C 160.997 168.024 152.147 159.648 141.66 149.403L 122.609 130.783L 121.311 133.7C 120.608 135.309 119.77 138.164 119.45 140.044C 119.13 141.925 118.566 144.005 118.201 144.663C 117.835 145.321 116.458 149.88 115.115 154.8C 113.772 159.72 112.182 165.496 111.589 167.635C 110.996 169.774 109.909 173.887 109.165 176.775C 107.562 182.992 106.454 183.384 102.651 179.109C 99.1237 175.144 89.0983 163.963 88.1296 162.919C 87.6986 162.455 85.4065 159.887 83.0361 157.207C 80.6656 154.526 78.0209 151.563 77.1589 150.619C 76.297 149.675 73.2996 146.321 70.4982 143.18C 67.6968 140.04 65.0062 137.091 64.5476 136.617C 64.089 136.143 62.0614 133.894 60.0418 131.633C 56.0359 127.15 55.4934 127.655 58.0093 133.505C 58.9066 135.592 60.1825 138.523 60.8254 140.02C 61.4684 141.518 62.4659 143.793 63.0538 145.076C 64.0603 147.274 65.3519 150.22 68.4902 157.523C 69.2256 159.234 70.3021 161.684 70.89 162.968C 71.8266 165.012 73.8925 169.712 76.008 174.636C 79.9039 183.705 81.1976 185.924 84.6033 189.173C 89.1731 193.532 96.3377 197.048 103.802 198.629C 115.185 201.04 131.396 199.888 144.207 195.736C 157.294 191.496 165.467 186.696 173.544 178.526C 180.062 171.933 180.353 171.57 182.531 167.173C 185.145 161.898 185.599 157.192 184.465 147.118C 183.906 142.147 183.06 134.575 182.58 130.296C 182.1 126.018 181.2 119.192 180.596 115.128C 179.993 111.063 179.271 105.025 178.98 101.709C 178.635 97.7757 178.133 95.7235 177.658 95.7776ZM 27.3013 98.7433C 15.6513 98.7159 1.53357 99.1143 0.903238 99.74C -0.325165 100.959 -0.292647 104.442 0.952213 105.744C 1.73985 106.568 6.12848 106.669 23.4322 106.255C 35.268 105.972 45.0996 105.579 45.2755 105.404C 45.4515 105.229 45.3811 103.904 45.1041 102.438C 44.6883 100.238 44.1725 99.6766 42.1656 99.2781C 40.393 98.9262 34.2914 98.7598 27.3013 98.7433Z"/>
</defs>
</svg>
